<?xml version="1.0" encoding="UTF-8"?>
<svg width="800" height="600" version="1.1" xmlns="http://www.w3.org/2000/svg">
    <!-- Background -->
    <rect width="800" height="600" fill="#f8f9fa"/>
    <!-- Title -->
    <text x="400" y="40" text-anchor="middle" font-family="Arial" font-size="24" font-weight="bold" fill="#2c3e50">Emerging Technologies</text>
    <!-- Main Container -->
    <rect x="50" y="70" width="700" height="480" rx="15" fill="#f1f8ff" stroke="#3498db" stroke-width="2"/>
    <text x="380" y="95" font-family="Arial" font-size="16" fill="#3498db">Specialized Domains &amp; Future Tech</text>
    <!-- AI/ML Section -->
    <rect x="70" y="110" width="320" height="160" rx="10" fill="#fff" stroke="#e67e22" stroke-width="2"/>
    <text x="230" y="135" text-anchor="middle" font-family="Arial" font-size="14" font-weight="bold" fill="#e67e22">AI/ML</text>
    <rect x="90" y="150" width="130" height="30" rx="5" fill="#fff3e0"/>
    <text x="155" y="170" text-anchor="middle" font-family="Arial" font-size="12">Deep Learning</text>
    <rect x="240" y="150" width="130" height="30" rx="5" fill="#fff3e0"/>
    <text x="305" y="170" text-anchor="middle" font-family="Arial" font-size="12">Computer Vision</text>
    <rect x="90" y="190" width="280" height="30" rx="5" fill="#fff3e0"/>
    <text x="230" y="210" text-anchor="middle" font-family="Arial" font-size="12">Natural Language Processing</text>
    <rect x="90" y="230" width="280" height="30" rx="5" fill="#fff3e0"/>
    <text x="230" y="250" text-anchor="middle" font-family="Arial" font-size="12">Machine Learning Ops (MLOps)</text>
    <!-- Blockchain Section -->
    <rect x="410" y="110" width="320" height="160" rx="10" fill="#fff" stroke="#2ecc71" stroke-width="2"/>
    <text x="570" y="135" text-anchor="middle" font-family="Arial" font-size="14" font-weight="bold" fill="#2ecc71">Blockchain</text>
    <rect x="430" y="150" width="130" height="30" rx="5" fill="#e8f5e9"/>
    <text x="495" y="170" text-anchor="middle" font-family="Arial" font-size="12">Smart Contracts</text>
    <rect x="580" y="150" width="130" height="30" rx="5" fill="#e8f5e9"/>
    <text x="645" y="170" text-anchor="middle" font-family="Arial" font-size="12">DeFi</text>
    <rect x="430" y="190" width="280" height="30" rx="5" fill="#e8f5e9"/>
    <text x="570" y="210" text-anchor="middle" font-family="Arial" font-size="12">Web3 Development</text>
    <rect x="430" y="230" width="280" height="30" rx="5" fill="#e8f5e9"/>
    <text x="570" y="250" text-anchor="middle" font-family="Arial" font-size="12">Ethereum, Solana</text>
    <!-- IoT Section -->
    <rect x="70" y="290" width="320" height="120" rx="10" fill="#fff" stroke="#9b59b6" stroke-width="2"/>
    <text x="230" y="315" text-anchor="middle" font-family="Arial" font-size="14" font-weight="bold" fill="#9b59b6">IoT &amp; Edge Computing</text>
    <rect x="90" y="330" width="130" height="30" rx="5" fill="#f3e5f5"/>
    <text x="155" y="350" text-anchor="middle" font-family="Arial" font-size="12">Edge Computing</text>
    <rect x="240" y="330" width="130" height="30" rx="5" fill="#f3e5f5"/>
    <text x="305" y="350" text-anchor="middle" font-family="Arial" font-size="12">IoT Protocols</text>
    <rect x="90" y="370" width="280" height="30" rx="5" fill="#f3e5f5"/>
    <text x="230" y="390" text-anchor="middle" font-family="Arial" font-size="12">Embedded Systems</text>
    <!-- Cloud Native Section -->
    <rect x="410" y="290" width="320" height="120" rx="10" fill="#fff" stroke="#e74c3c" stroke-width="2"/>
    <text x="570" y="315" text-anchor="middle" font-family="Arial" font-size="14" font-weight="bold" fill="#e74c3c">Cloud Native</text>
    <rect x="430" y="330" width="130" height="30" rx="5" fill="#fadbd8"/>
    <text x="495" y="350" text-anchor="middle" font-family="Arial" font-size="12">Serverless</text>
    <rect x="580" y="330" width="130" height="30" rx="5" fill="#fadbd8"/>
    <text x="645" y="350" text-anchor="middle" font-family="Arial" font-size="12">Service Mesh</text>
    <rect x="430" y="370" width="280" height="30" rx="5" fill="#fadbd8"/>
    <text x="570" y="390" text-anchor="middle" font-family="Arial" font-size="12">Cloud Native Security</text>
    <!-- Future Tech Section -->
    <rect x="70" y="430" width="660" height="100" rx="10" fill="#fff" stroke="#34495e" stroke-width="2"/>
    <text x="400" y="455" text-anchor="middle" font-family="Arial" font-size="14" font-weight="bold" fill="#34495e">Future Technologies</text>
    <rect x="90" y="470" width="180" height="30" rx="5" fill="#ecf0f1"/>
    <text x="180" y="490" text-anchor="middle" font-family="Arial" font-size="12">Quantum Computing</text>
    <rect x="310" y="470" width="180" height="30" rx="5" fill="#ecf0f1"/>
    <text x="400" y="490" text-anchor="middle" font-family="Arial" font-size="12">Extended Reality (XR)</text>
    <rect x="530" y="470" width="180" height="30" rx="5" fill="#ecf0f1"/>
    <text x="620" y="490" text-anchor="middle" font-family="Arial" font-size="12">5G/6G Networks</text>
</svg>